<?xml version="1.0" standalone="no"?>
<!DOCTYPE svg PUBLIC "-//W3C//DTD SVG 20010904//EN"
 "http://www.w3.org/TR/2001/REC-SVG-20010904/DTD/svg10.dtd">
<svg version="1.0" xmlns="http://www.w3.org/2000/svg"
 width="800.000000pt" height="800.000000pt" viewBox="0 0 800.000000 800.000000"
 preserveAspectRatio="xMidYMid meet">
<metadata>
Created by potrace 1.14, written by Peter Selinger 2001-2017
</metadata>
<g transform="translate(0.000000,800.000000) scale(0.100000,-0.100000)"
fill="#000000" stroke="none">
<path d="M5790 7117 c-19 -7 -208 -111 -419 -230 l-383 -217 -52 44 c-171 146
-437 272 -671 320 -318 65 -672 16 -930 -129 -378 -211 -629 -623 -731 -1200
-8 -44 -34 -271 -59 -505 -25 -234 -66 -598 -90 -809 -25 -212 -45 -393 -45
-404 0 -17 -7 -15 -67 19 -354 196 -679 474 -945 809 -131 165 -215 202 -358
159 -74 -22 -152 -100 -174 -174 -42 -140 -8 -211 220 -470 1103 -1251 2891
-1676 4434 -1055 277 112 481 218 725 380 330 218 648 507 890 809 91 114 106
145 113 222 13 161 -106 294 -263 294 -123 0 -174 -33 -296 -190 -203 -261
-468 -503 -759 -695 -101 -66 -339 -200 -344 -194 -2 2 -38 338 -80 746 -70
673 -75 745 -63 776 19 45 57 73 115 86 215 46 753 176 774 187 94 48 148 139
148 247 0 109 -47 190 -139 241 -93 50 -110 48 -571 -58 -372 -87 -425 -102
-510 -143 -80 -39 -108 -59 -181 -133 -139 -140 -199 -286 -198 -485 0 -55 37
-451 83 -880 57 -543 79 -782 71 -787 -19 -12 -238 -67 -350 -87 -234 -43
-362 -54 -630 -55 -265 -1 -362 6 -590 45 -215 37 -525 122 -525 144 0 7 20
183 45 391 24 209 63 548 85 754 68 630 79 719 106 838 81 363 233 597 459
707 178 88 399 97 620 28 138 -44 243 -104 381 -221 76 -63 153 -105 225 -121
77 -18 197 -13 269 12 88 30 894 482 940 527 49 48 73 103 78 177 11 160 -96
280 -257 290 -39 2 -80 -2 -101 -10z"/>
<path d="M3865 6016 c-65 -30 -138 -111 -166 -184 -30 -79 -37 -209 -14 -288
96 -337 472 -337 559 1 78 296 -150 578 -379 471z"/>
<path d="M937 3499 c-83 -20 -146 -69 -185 -143 -22 -42 -27 -64 -27 -126 0
-65 4 -82 30 -129 18 -33 52 -72 85 -98 92 -73 429 -296 566 -373 1052 -596
2259 -819 3454 -639 754 114 1500 404 2145 834 257 172 305 211 337 275 37 74
44 133 24 203 -36 123 -139 202 -264 201 -84 -1 -111 -14 -275 -131 -1078
-774 -2440 -1062 -3747 -792 -670 139 -1316 426 -1858 827 -116 85 -200 112
-285 91z"/>
<path d="M1704 1904 c-60 -21 -119 -76 -149 -139 -24 -48 -27 -64 -23 -127 6
-111 55 -191 146 -237 52 -26 409 -143 584 -191 899 -246 1871 -303 2803 -164
402 60 856 173 1227 305 137 49 154 58 199 106 60 62 74 98 74 188 0 70 -4 87
-30 134 -18 33 -47 67 -73 85 -103 73 -168 74 -363 5 -491 -173 -1039 -286
-1589 -330 -195 -15 -738 -15 -930 0 -543 44 -1000 137 -1507 307 -238 79
-287 87 -369 58z"/>
</g>
</svg>
